P3
60 48
255
 255 127   0 255 127   0 255 127   0 255 127   0 255 127   0 255 127   0   0 127 255   0 127 255   0 127 255   0 127 255   0 127 255   0 127 255 255 127   0 255 127   0 255 127   0 255 127   0 255 127   0 255 127   0   0 127 255   0 127 255   0 127 255   0 127 255   0 127 255   0 127 255 255 127   0 255 127   0 255 127   0 255 127   0 255 127   0 255 127   0   0 127 255   0 127 255   0 127 255   0 127 255   0 127 255   0 127 255 255 127   0 255 127   0 255 127   0 255 127   0 255 127   0 255 127   0   0 127 255   0 127 255   0 127 255   0 127 255   0 127 255   0 127 255 255 127   0 255 127   0 255 127   0 255 127   0 255 127   0 255 127   0   0 127 255   0 127 255   0 127 255   0 127 255   0 127 255   0 127 255
 255 127   0 255 127   0 255 127   0 255 127   0 255 127   0 255 127   0   0 127 255   0 127 255   0 127 255   0 127 255   0 127 255   0 127 255 255 127   0 255 127   0 255 127   0 255 127   0 255 127   0 255 127   0   0 127 255   0 127 255   0 127 255   0 127 255   0 127 255   0 127 255 255 127   0 255 127   0 255 127   0 255 127   0 255 127   0 255 127   0   0 127 255   0 127 255   0 127 255   0 127 255   0 127 255   0 127 255 255 127   0 255 127   0 255 127   0 255 127   0 255 127   0 255 127   0   0 127 255   0 127 255   0 127 255   0 127 255   0 127 255   0 127 255 255 127   0 255 127   0 255 127   0 255 127   0 255 127   0 255 127   0   0 127 255   0 127 255   0 127 255   0 127 255   0 127 255   0 127 255
 255 127   0 255 127   0 255 127   0 255 127   0 255 127   0 255 127   0   0 127 255   0 127 255   0 127 255   0 127 255   0 127 255   0 127 255 255 127   0 255 127   0 255 127   0 255 127   0 255 127   0 255 127   0   0 127 255   0 127 255   0 127 255   0 127 255   0 127 255   0 127 255 255 127   0 255 127   0 255 127   0 255 127   0 255 127   0 255 127   0   0 127 255   0 127 255   0 127 255   0 127 255   0 127 255   0 127 255 255 127   0 255 127   0 255 127   0 255 127   0 255 127   0 255 127   0   0 127 255   0 127 255   0 127 255   0 127 255   0 127 255   0 127 255 255 127   0 255 127   0 255 127   0 255 127   0 255 127   0 255 127   0   0 127 255   0 127 255   0 127 255   0 127 255   0 127 255   0 127 255
 255 127   0 255 127   0 255 127   0 255 127   0 255 127   0 255 127   0   0 127 255   0 255   0   0 127 255   0 127 255   0 127 255   0 127 255 255 127   0 255 127   0 255 127   0 255 127   0 255 127   0 255 127   0   0 127 255   0 127 255   0 127 255   0 127 255   0 127 255   0 127 255 255 127   0 255 127   0 255 127   0 255 127   0 255 127   0 255 127   0   0 127 255   0 127 255   0 127 255   0 127 255   0 127 255   0 127 255   0 255   0 255 127   0 255 127   0 255 127   0 255 127   0 255 127   0   0 127 255   0 127 255   0 127 255   0 127 255   0 127 255   0 127 255 255 127   0 255 127   0 255 127   0 255 127   0 255 127   0 255 127   0   0 127 255   0 127 255   0 127 255   0 127 255   0 127 255   0 127 255
 255 127   0 255 127   0 255 127   0 255 127   0 255 127   0 255 127   0   0 127 255   0 127 255   0 255   0   0 127 255   0 127 255   0 127 255 255 127   0 255 127   0 255 127   0 255 127   0 255 127   0 255 127   0   0 127 255   0 127 255   0 127 255   0 127 255   0 127 255   0 127 255 255 127   0 255 127   0 255 127   0 255 127   0 255 127   0 255 127   0   0 127 255   0 127 255   0 127 255   0 127 255   0 255   0   0 255   0   0 255   0 255 127   0 255 127   0 255 127   0 255 127   0 255 127   0   0 127 255   0 127 255   0 127 255   0 127 255   0 127 255   0 127 255 255 127   0 255 127   0 255 127   0 255 127   0 255 127   0 255 127   0   0 127 255   0 127 255   0 127 255   0 127 255   0 127 255   0 127 255
 255 127   0 255 127   0 255 127   0 255 127   0 255 127   0 255 127   0   0 127 255   0 127 255   0 127 255   0 255   0   0 127 255   0 127 255 255 127   0 255 127   0 255 127   0 255 127   0 255 127   0 255 127   0   0 127 255   0 127 255   0 127 255   0 127 255   0 127 255   0 127 255 255 127   0 255 127   0 255 127   0 255 127   0 255 127   0 255 127   0   0 127 255   0 127 255   0 255   0   0 255   0   0 127 255   0 255   0 255 127   0 255 127   0 255 127   0 255 127   0 255 127   0 255 127   0   0 127 255   0 127 255   0 127 255   0 127 255   0 127 255   0 127 255 255 127   0 255 127   0 255 127   0 255 127   0 255 127   0 255 127   0   0 127 255   0 127 255   0 127 255   0 127 255   0 127 255   0 127 255
 255 127   0 255 127   0 255 127   0 255 127   0 255 127   0 255 127   0   0 127 255   0 127 255   0 127 255   0 127 255   0 255   0   0 127 255 255 127   0 255 127   0 255 127   0 255 127   0 255 127   0 255 127   0   0 127 255   0 127 255   0 127 255   0 127 255   0 127 255   0 127 255 255 127   0 255 127   0 255 127   0 255 127   0 255 127   0 255 127   0   0 255   0   0 255   0   0 127 255   0 127 255   0 127 255   0 255   0 255 127   0 255 127   0 255 127   0 255 127   0 255 127   0 255 127   0   0 127 255   0 127 255   0 127 255   0 127 255   0 127 255   0 127 255 255 127   0 255 127   0 255 127   0 255 127   0 255 127   0 255 127   0   0 127 255   0 127 255   0 127 255   0 127 255   0 127 255   0 127 255
 255 127   0 255 127   0 255 127   0 255 127   0 255 127   0 255 127   0   0 127 255   0 127 255   0 127 255   0 127 255   0 127 255   0 255   0 255 127   0 255 127   0 255 127   0 255 127   0 255 127   0 255 127   0   0 127 255   0 127 255   0 127 255   0 127 255   0 127 255   0 127 255 255 127   0 255 127   0 255 127   0 255 127   0 255 127   0   0 255   0   0 127 255   0 127 255   0 127 255   0 127 255   0 255   0   0 127 255 255 127   0 255 127   0 255 127   0 255 127   0 255 127   0 255 127   0   0 127 255   0 127 255   0 127 255   0 127 255   0 127 255   0 127 255 255 127   0 255 127   0 255 127   0 255 127   0 255 127   0 255 127   0   0 127 255   0 127 255   0 127 255   0 127 255   0 127 255   0 127 255
 255 127   0 255 127   0 255 127   0 255 127   0 255 127   0 255 127   0   0 127 255   0 127 255   0 127 255   0 127 255   0 127 255   0 127 255   0 255   0 255 127   0 255 127   0 255 127   0 255 127   0 255 127   0   0 127 255   0 127 255   0 127 255   0 127 255   0 127 255   0 127 255 255 127   0 255 127   0 255 127   0   0 255   0   0 255   0 255 127   0   0 127 255   0 127 255   0 127 255   0 127 255   0 255   0   0 127 255 255 127   0 255 127   0 255 127   0 255 127   0 255 127   0 255 127   0   0 127 255   0 127 255   0 127 255   0 127 255   0 127 255   0 127 255 255 127   0 255 127   0 255 127   0 255 127   0 255 127   0 255 127   0   0 127 255   0 127 255   0 127 255   0 127 255   0 127 255   0 127 255
 255 127   0 255 127   0 255 127   0 255 127   0 255 127   0 255 127   0   0 127 255   0 127 255   0 127 255   0 127 255   0 127 255   0 127 255 255 127   0   0 255   0 255 127   0 255 127   0 255 127   0 255 127   0   0 127 255   0 127 255   0 127 255   0 127 255   0 127 255   0 127 255 255 127   0   0 255   0   0 255   0 255 127   0 255 127   0 255 127   0   0 127 255   0 127 255   0 127 255   0 127 255   0 255   0   0 127 255 255 127   0 255 127   0 255 127   0 255 127   0 255 127   0 255 127   0   0 127 255   0 127 255   0 127 255   0 127 255   0 127 255   0 127 255 255 127   0 255 127   0 255 127   0 255 127   0 255 127   0 255 127   0   0 127 255   0 127 255   0 127 255   0 127 255   0 127 255   0 127 255
 255 127   0 255 127   0 255 127   0 255 127   0 255 127   0 255 127   0   0 127 255   0 127 255   0 127 255   0 127 255   0 127 255   0 127 255 255 127   0 255 127   0   0 255   0 255 127   0 255 127   0 255 127   0   0 127 255   0 127 255   0 127 255   0 127 255   0 127 255   0 255   0   0 255   0 255 127   0 255 127   0 255 127   0 255 127   0 255 127   0   0 127 255   0 127 255   0 127 255   0 255   0   0 127 255   0 127 255 255 127   0 255 127   0 255 127   0 255 127   0 255 127   0 255 127   0   0 127 255   0 127 255   0 127 255   0 127 255   0 127 255   0 127 255 255 127   0 255 127   0 255 127   0 255 127   0 255 127   0 255 127   0   0 127 255   0 127 255   0 127 255   0 127 255   0 127 255   0 127 255
 255 127   0 255 127   0 255 127   0 255 127   0 255 127   0 255 127   0   0 127 255   0 127 255   0 127 255   0 127 255   0 127 255   0 127 255 255 127   0 255 127   0 255 127   0   0 255   0 255 127   0 255 127   0   0 127 255   0 127 255   0 127 255   0 255   0   0 255   0   0 127 255 255 127   0 255 127   0 255 127   0 255 127   0 255 127   0 255 127   0   0 127 255   0 127 255   0 127 255   0 255   0   0 127 255   0 127 255 255 127   0 255 127   0 255 127   0 255 127   0 255 127   0 255 127   0   0 127 255   0 127 255   0 127 255   0 127 255   0 127 255   0 127 255 255 127   0 255 127   0 255 127   0 255 127   0 255 127   0 255 127   0   0 127 255   0 127 255   0 127 255   0 127 255   0 127 255   0 127 255
 255 127   0 255 127   0 255 127   0 255 127   0 255 127   0 255 127   0   0 127 255   0 127 255   0 127 255   0 127 255   0 127 255   0 127 255 255 127   0 255 127   0 255 127   0 255 127   0   0 255   0 255 127   0   0 127 255   0 127 255   0 255   0   0 127 255   0 127 255   0 127 255 255 127   0 255 127   0 255 127   0 255 127   0 255 127   0 255 127   0   0 127 255   0 127 255   0 255   0   0 127 255   0 127 255   0 127 255 255 127   0 255 127   0 255 127   0 255 127   0 255 127   0 255 127   0   0 127 255   0 127 255   0 127 255   0 127 255   0 127 255   0 127 255 255 127   0 255 127   0 255 127   0 255 127   0 255 127   0 255 127   0   0 127 255   0 127 255   0 127 255   0 127 255   0 127 255   0 127 255
 255 127   0 255 127   0 255 127   0 255 127   0 255 127   0 255 127   0   0 127 255   0 127 255   0 127 255   0 127 255   0 127 255   0 127 255 255 127   0 255 127   0 255 127   0 255 127   0 255 127   0   0 255   0   0 255   0   0 255   0   0 127 255   0 127 255   0 127 255   0 127 255 255 127   0 255 127   0 255 127   0 255 127   0 255 127   0 255 127   0   0 127 255   0 127 255   0 255   0   0 127 255   0 127 255   0 127 255 255 127   0 255 127   0 255 127   0 255 127   0 255 127   0 255 127   0   0 127 255   0 127 255   0 127 255   0 127 255   0 127 255   0 127 255 255 127   0 255 127   0 255 127   0 255 127   0 255 127   0 255 127   0   0 127 255   0 127 255   0 127 255   0 127 255   0 127 255   0 127 255
 255 127   0 255 127   0 255 127   0 255 127   0 255 127   0 255 127   0   0 127 255   0 127 255   0 127 255   0 127 255   0 127 255   0 127 255 255 127   0 255 127   0 255 127   0 255 127   0   0 255   0   0 255   0   0 255   0   0 127 255   0 127 255   0 127 255   0 127 255   0 127 255 255 127   0 255 127   0 255 127   0 255 127   0 255 127   0 255 127   0   0 127 255   0 127 255   0 255   0   0 127 255   0 127 255   0 127 255 255 127   0 255 127   0 255 127   0 255 127   0 255 127   0 255 127   0   0 127 255   0 127 255   0 127 255   0 127 255   0 127 255   0 127 255 255 127   0 255 127   0 255 127   0 255 127   0 255 127   0 255 127   0   0 127 255   0 127 255   0 127 255   0 127 255   0 127 255   0 127 255
 255 127   0 255 127   0 255 127   0 255 127   0 255 127   0 255 127   0   0 127 255   0 127 255   0 127 255   0 127 255   0 127 255   0 127 255 255 127   0 255 127   0   0 255   0   0 255   0 255 127   0 255 127   0   0 127 255   0 255   0   0 127 255   0 127 255   0 127 255   0 127 255 255 127   0 255 127   0 255 127   0 255 127   0 255 127   0 255 127   0   0 127 255   0 255   0   0 127 255   0 127 255   0 127 255   0 127 255 255 127   0 255 127   0 255 127   0 255 127   0 255 127   0 255 127   0   0 127 255   0 127 255   0 127 255   0 127 255   0 127 255   0 127 255 255 127   0 255 127   0 255 127   0 255 127   0 255 127   0 255 127   0   0 127 255   0 127 255   0 127 255   0 127 255   0 127 255   0 127 255
 255 127   0 255 127   0 255 127   0 255 127   0 255 127   0 255 127   0   0 127 255   0 127 255   0 127 255   0 127 255   0 127 255   0 127 255 255 127   0   0 255   0 255 127   0 255 127   0 255 127   0 255 127   0   0 127 255   0 127 255   0 255   0   0 127 255   0 127 255   0 127 255 255 127   0 255 127   0 255 127   0 255 127   0 255 127   0 255 127   0   0 127 255   0 255   0   0 127 255   0 127 255   0 127 255   0 127 255 255 127   0 255 127   0 255 127   0 255 127   0 255 127   0 255 127   0   0 127 255   0 127 255   0 127 255   0 127 255   0 127 255   0 127 255 255 127   0 255 127   0 255 127   0 255 127   0 255 127   0 255 127   0   0 127 255   0 127 255   0 127 255   0 127 255   0 127 255   0 127 255
 255 127   0 255 127   0 255 127   0 255 127   0 255 127   0 255 127   0   0 127 255   0 127 255   0 127 255   0 127 255   0 127 255   0 255   0   0 255   0 255 127   0 255 127   0 255 127   0 255 127   0 255 127   0   0 127 255   0 127 255   0 127 255   0 255   0   0 127 255   0 127 255 255 127   0 255 127   0 255 127   0 255 127   0 255 127   0 255 127   0   0 255   0   0 127 255   0 127 255   0 127 255   0 127 255   0 127 255 255 127   0 255 127   0 255 127   0 255 127   0 255 127   0 255 127   0   0 127 255   0 127 255   0 127 255   0 127 255   0 127 255   0 127 255 255 127   0 255 127   0 255 127   0 255 127   0 255 127   0 255 127   0   0 127 255   0 127 255   0 127 255   0 127 255   0 127 255   0 127 255
 255 127   0 255 127   0 255 127   0 255 127   0 255 127   0 255 127   0   0 127 255   0 127 255   0 127 255   0 255   0   0 255   0   0 127 255 255 127   0 255 127   0 255 127   0 255 127   0 255 127   0 255 127   0   0 127 255   0 127 255   0 127 255   0 127 255   0 255   0   0 127 255 255 127   0 255 127   0 255 127   0 255 127   0 255 127   0 255 127   0   0 255   0   0 127 255   0 127 255   0 127 255   0 127 255   0 127 255 255 127   0 255 127   0 255 127   0 255 127   0 255 127   0 255 127   0   0 127 255   0 127 255   0 127 255   0 127 255   0 127 255   0 127 255 255 127   0 255 127   0 255 127   0 255 127   0 255 127   0 255 127   0   0 127 255   0 127 255   0 127 255   0 127 255   0 127 255   0 127 255
 255 127   0 255 127   0 255 127   0 255 127   0 255 127   0 255 127   0   0 127 255   0 255   0   0 255   0   0 127 255   0 127 255   0 127 255 255 127   0 255 127   0 255 127   0 255 127   0 255 127   0 255 127   0   0 127 255   0 127 255   0 127 255   0 127 255   0 127 255   0 255   0 255 127   0 255 127   0 255 127   0 255 127   0 255 127   0   0 255   0   0 127 255   0 127 255   0 127 255   0 127 255   0 127 255   0 127 255 255 127   0 255 127   0 255 127   0 255 127   0 255 127   0 255 127   0   0 127 255   0 127 255   0 127 255   0 127 255   0 127 255   0 127 255 255 127   0 255 127   0 255 127   0 255 127   0 255 127   0 255 127   0   0 127 255   0 127 255   0 127 255   0 127 255   0 127 255   0 127 255
 255 127   0 255 127   0 255 127   0 255 127   0 255 127   0 255 127   0   0 255   0   0 127 255   0 127 255   0 127 255   0 127 255   0 127 255 255 127   0 255 127   0 255 127   0 255 127   0 255 127   0 255 127   0   0 127 255   0 127 255   0 127 255   0 127 255   0 127 255   0 127 255   0 255   0 255 127   0 255 127   0 255 127   0 255 127   0   0 255   0   0 127 255   0 127 255   0 127 255   0 127 255   0 127 255   0 127 255 255 127   0 255 127   0 255 127   0 255 127   0 255 127   0 255 127   0   0 127 255   0 127 255   0 127 255   0 127 255   0 127 255   0 127 255 255 127   0 255 127   0 255 127   0 255 127   0 255 127   0 255 127   0   0 127 255   0 127 255   0 127 255   0 127 255   0 127 255   0 127 255
 255 127   0 255 127   0 255 127   0 255 127   0 255 127   0 255 127   0   0 127 255   0 255   0   0 255   0   0 127 255   0 127 255   0 127 255 255 127   0 255 127   0 255 127   0 255 127   0 255 127   0 255 127   0   0 127 255   0 127 255   0 127 255   0 127 255   0 127 255   0 127 255 255 127   0   0 255   0 255 127   0 255 127   0 255 127   0   0 255   0   0 127 255   0 127 255   0 127 255   0 127 255   0 127 255   0 127 255 255 127   0 255 127   0 255 127   0 255 127   0 255 127   0 255 127   0   0 127 255   0 127 255   0 127 255   0 127 255   0 127 255   0 127 255 255 127   0 255 127   0 255 127   0 255 127   0 255 127   0 255 127   0   0 127 255   0 127 255   0 127 255   0 127 255   0 127 255   0 127 255
 255 127   0 255 127   0 255 127   0 255 127   0 255 127   0 255 127   0   0 127 255   0 127 255   0 127 255   0 255   0   0 255   0   0 127 255 255 127   0 255 127   0 255 127   0 255 127   0 255 127   0 255 127   0   0 127 255   0 127 255   0 127 255   0 127 255   0 127 255   0 127 255 255 127   0 255 127   0   0 255   0 255 127   0   0 255   0 255 127   0   0 127 255   0 127 255   0 127 255   0 127 255   0 127 255   0 127 255 255 127   0 255 127   0 255 127   0 255 127   0 255 127   0 255 127   0   0 127 255   0 127 255   0 127 255   0 127 255   0 127 255   0 127 255 255 127   0 255 127   0 255 127   0 255 127   0 255 127   0 255 127   0   0 127 255   0 127 255   0 127 255   0 127 255   0 127 255   0 127 255
 255 127   0 255 127   0 255 127   0 255 127   0 255 127   0 255 127   0   0 127 255   0 127 255   0 127 255   0 127 255   0 127 255   0 255   0   0 255   0 255 127   0 255 127   0 255 127   0 255 127   0 255 127   0   0 127 255   0 127 255   0 127 255   0 127 255   0 127 255   0 127 255 255 127   0 255 127   0 255 127   0   0 255   0   0 255   0 255 127   0   0 127 255   0 127 255   0 127 255   0 127 255   0 127 255   0 127 255 255 127   0 255 127   0 255 127   0 255 127   0 255 127   0 255 127   0   0 127 255   0 127 255   0 127 255   0 127 255   0 127 255   0 127 255 255 127   0 255 127   0 255 127   0 255 127   0 255 127   0 255 127   0   0 127 255   0 127 255   0 127 255   0 127 255   0 127 255   0 127 255
 255 127   0 255 127   0 255 127   0 255 127   0 255 127   0 255 127   0   0 127 255   0 127 255   0 127 255   0 127 255   0 127 255   0 127 255 255 127   0   0 255   0   0 255   0 255 127   0 255 127   0 255 127   0   0 127 255   0 127 255   0 127 255   0 127 255   0 127 255   0 127 255 255 127   0 255 127   0 255 127   0   0 255   0   0 255   0 255 127   0   0 127 255   0 127 255   0 127 255   0 127 255   0 127 255   0 127 255 255 127   0 255 127   0 255 127   0 255 127   0 255 127   0 255 127   0   0 127 255   0 127 255   0 127 255   0 127 255   0 127 255   0 127 255 255 127   0 255 127   0 255 127   0 255 127   0 255 127   0 255 127   0   0 127 255   0 127 255   0 127 255   0 127 255   0 127 255   0 127 255
 255 127   0 255 127   0 255 127   0 255 127   0 255 127   0 255 127   0   0 127 255   0 127 255   0 127 255   0 127 255   0 127 255   0 127 255 255 127   0 255 127   0 255 127   0   0 255   0   0 255   0 255 127   0   0 127 255   0 127 255   0 127 255   0 127 255   0 127 255   0 127 255 255 127   0 255 127   0 255 127   0   0 255   0 255 127   0   0 255   0   0 127 255   0 127 255   0 127 255   0 127 255   0 127 255   0 127 255 255 127   0 255 127   0 255 127   0 255 127   0 255 127   0 255 127   0   0 127 255   0 127 255   0 127 255   0 127 255   0 127 255   0 127 255 255 127   0 255 127   0 255 127   0 255 127   0 255 127   0 255 127   0   0 127 255   0 127 255   0 127 255   0 127 255   0 127 255   0 127 255
 255 127   0 255 127   0 255 127   0 255 127   0 255 127   0 255 127   0   0 127 255   0 127 255   0 127 255   0 127 255   0 127 255   0 127 255 255 127   0 255 127   0 255 127   0 255 127   0 255 127   0   0 255   0   0 255   0   0 127 255   0 127 255   0 127 255   0 127 255   0 127 255 255 127   0 255 127   0 255 127   0   0 255   0 255 127   0 255 127   0   0 255   0   0 127 255   0 127 255   0 127 255   0 127 255   0 127 255 255 127   0 255 127   0 255 127   0 255 127   0 255 127   0 255 127   0   0 127 255   0 127 255   0 127 255   0 127 255   0 127 255   0 127 255 255 127   0 255 127   0 255 127   0 255 127   0 255 127   0 255 127   0   0 127 255   0 127 255   0 127 255   0 127 255   0 127 255   0 127 255
 255 127   0 255 127   0 255 127   0 255 127   0 255 127   0 255 127   0   0 127 255   0 127 255   0 127 255   0 127 255   0 127 255   0 127 255 255 127   0 255 127   0 255 127   0 255 127   0 255 127   0 255 127   0   0 127 255   0 255   0   0 255   0   0 127 255   0 127 255   0 127 255 255 127   0 255 127   0   0 255   0 255 127   0 255 127   0 255 127   0   0 127 255   0 255   0   0 127 255   0 127 255   0 127 255   0 127 255 255 127   0 255 127   0 255 127   0 255 127   0 255 127   0 255 127   0   0 127 255   0 127 255   0 127 255   0 127 255   0 127 255   0 127 255 255 127   0 255 127   0 255 127   0 255 127   0 255 127   0 255 127   0   0 127 255   0 127 255   0 127 255   0 127 255   0 127 255   0 127 255
 255 127   0 255 127   0 255 127   0 255 127   0 255 127   0 255 127   0   0 127 255   0 127 255   0 127 255   0 127 255   0 127 255   0 127 255 255 127   0 255 127   0 255 127   0 255 127   0 255 127   0 255 127   0   0 127 255   0 127 255   0 127 255   0 255   0   0 255   0   0 127 255 255 127   0 255 127   0   0 255   0 255 127   0 255 127   0 255 127   0   0 127 255   0 127 255   0 255   0   0 127 255   0 127 255   0 127 255 255 127   0 255 127   0 255 127   0 255 127   0 255 127   0 255 127   0   0 127 255   0 127 255   0 127 255   0 127 255   0 127 255   0 127 255 255 127   0 255 127   0 255 127   0 255 127   0 255 127   0 255 127   0   0 127 255   0 127 255   0 127 255   0 127 255   0 127 255   0 127 255
 255 127   0 255 127   0 255 127   0 255 127   0 255 127   0 255 127   0   0 127 255   0 127 255   0 127 255   0 127 255   0 127 255   0 127 255 255 127   0 255 127   0 255 127   0 255 127   0 255 127   0 255 127   0   0 127 255   0 127 255   0 127 255   0 127 255   0 127 255   0 255   0   0 255   0   0 255   0 255 127   0 255 127   0 255 127   0 255 127   0   0 127 255   0 127 255   0 127 255   0 255   0   0 127 255   0 127 255 255 127   0 255 127   0 255 127   0 255 127   0 255 127   0 255 127   0   0 127 255   0 127 255   0 127 255   0 127 255   0 127 255   0 127 255 255 127   0 255 127   0 255 127   0 255 127   0 255 127   0 255 127   0   0 127 255   0 127 255   0 127 255   0 127 255   0 127 255   0 127 255
 255 127   0 255 127   0 255 127   0 255 127   0 255 127   0 255 127   0   0 127 255   0 127 255   0 127 255   0 127 255   0 127 255   0 127 255 255 127   0 255 127   0 255 127   0 255 127   0 255 127   0 255 127   0   0 127 255   0 127 255   0 127 255   0 127 255   0 127 255   0 127 255 255 127   0   0 255   0 255 127   0 255 127   0 255 127   0 255 127   0   0 127 255   0 127 255   0 127 255   0 127 255   0 255   0   0 127 255 255 127   0 255 127   0 255 127   0 255 127   0 255 127   0 255 127   0   0 127 255   0 127 255   0 127 255   0 127 255   0 127 255   0 127 255 255 127   0 255 127   0 255 127   0 255 127   0 255 127   0 255 127   0   0 127 255   0 127 255   0 127 255   0 127 255   0 127 255   0 127 255
 255 127   0 255 127   0 255 127   0 255 127   0 255 127   0 255 127   0   0 127 255   0 127 255   0 127 255   0 127 255   0 127 255   0 127 255 255 127   0 255 127   0 255 127   0 255 127   0 255 127   0 255 127   0   0 127 255   0 127 255   0 127 255   0 127 255   0 127 255   0 127 255 255 127   0 255 127   0 255 127   0 255 127   0 255 127   0 255 127   0   0 127 255   0 127 255   0 127 255   0 127 255   0 127 255   0 255   0 255 127   0 255 127   0 255 127   0 255 127   0 255 127   0 255 127   0   0 127 255   0 127 255   0 127 255   0 127 255   0 127 255   0 127 255 255 127   0 255 127   0 255 127   0 255 127   0 255 127   0 255 127   0   0 127 255   0 127 255   0 127 255   0 127 255   0 127 255   0 127 255
 255 127   0 255 127   0 255 127   0 255 127   0 255 127   0 255 127   0   0 127 255   0 127 255   0 127 255   0 127 255   0 127 255   0 127 255 255 127   0 255 127   0 255 127   0 255 127   0 255 127   0 255 127   0   0 127 255   0 127 255   0 127 255   0 127 255   0 127 255   0 127 255 255 127   0 255 127   0 255 127   0 255 127   0 255 127   0 255 127   0   0 127 255   0 127 255   0 127 255   0 127 255   0 127 255   0 127 255   0 255   0 255 127   0 255 127   0 255 127   0 255 127   0 255 127   0   0 127 255   0 127 255   0 127 255   0 127 255   0 127 255   0 127 255 255 127   0 255 127   0 255 127   0 255 127   0 255 127   0 255 127   0   0 127 255   0 127 255   0 127 255   0 127 255   0 127 255   0 127 255
 255 127   0 255 127   0 255 127   0 255 127   0 255 127   0 255 127   0   0 127 255   0 127 255   0 127 255   0 127 255   0 127 255   0 127 255 255 127   0 255 127   0 255 127   0 255 127   0 255 127   0 255 127   0   0 127 255   0 127 255   0 127 255   0 127 255   0 127 255   0 127 255 255 127   0 255 127   0 255 127   0 255 127   0 255 127   0 255 127   0   0 127 255   0 127 255   0 127 255   0 127 255   0 127 255   0 127 255 255 127   0   0 255   0 255 127   0 255 127   0 255 127   0 255 127   0   0 127 255   0 127 255   0 127 255   0 127 255   0 127 255   0 127 255 255 127   0 255 127   0 255 127   0 255 127   0 255 127   0 255 127   0   0 127 255   0 127 255   0 127 255   0 127 255   0 127 255   0 127 255
 255 127   0 255 127   0 255 127   0 255 127   0 255 127   0 255 127   0   0 127 255   0 127 255   0 127 255   0 127 255   0 127 255   0 127 255 255 127   0 255 127   0 255 127   0 255 127   0 255 127   0 255 127   0   0 127 255   0 127 255   0 127 255   0 127 255   0 127 255   0 127 255 255 127   0 255 127   0 255 127   0 255 127   0 255 127   0 255 127   0   0 127 255   0 127 255   0 127 255   0 127 255   0 127 255   0 127 255 255 127   0 255 127   0   0 255   0 255 127   0 255 127   0 255 127   0   0 127 255   0 127 255   0 127 255   0 127 255   0 127 255   0 127 255 255 127   0 255 127   0 255 127   0 255 127   0 255 127   0 255 127   0   0 127 255   0 127 255   0 127 255   0 127 255   0 127 255   0 127 255
 255 127   0 255 127   0 255 127   0 255 127   0 255 127   0 255 127   0   0 127 255   0 127 255   0 127 255   0 127 255   0 127 255   0 127 255 255 127   0 255 127   0 255 127   0 255 127   0 255 127   0 255 127   0   0 127 255   0 127 255   0 127 255   0 127 255   0 127 255   0 127 255 255 127   0 255 127   0 255 127   0 255 127   0 255 127   0 255 127   0   0 127 255   0 127 255   0 127 255   0 127 255   0 127 255   0 127 255 255 127   0 255 127   0 255 127   0   0 255   0 255 127   0 255 127   0   0 127 255   0 127 255   0 127 255   0 127 255   0 127 255   0 127 255 255 127   0 255 127   0 255 127   0 255 127   0 255 127   0 255 127   0   0 127 255   0 127 255   0 127 255   0 127 255   0 127 255   0 127 255
 255 127   0 255 127   0 255 127   0 255 127   0 255 127   0 255 127   0   0 127 255   0 127 255   0 127 255   0 127 255   0 127 255   0 127 255 255 127   0 255 127   0 255 127   0 255 127   0 255 127   0 255 127   0   0 127 255   0 127 255   0 127 255   0 127 255   0 127 255   0 127 255 255 127   0 255 127   0 255 127   0 255 127   0 255 127   0 255 127   0   0 127 255   0 127 255   0 127 255   0 127 255   0 127 255   0 127 255 255 127   0 255 127   0 255 127   0 255 127   0   0 255   0 255 127   0   0 127 255   0 127 255   0 127 255   0 127 255   0 127 255   0 127 255 255 127   0 255 127   0 255 127   0 255 127   0 255 127   0 255 127   0   0 127 255   0 127 255   0 127 255   0 127 255   0 127 255   0 127 255
 255 127   0 255 127   0 255 127   0 255 127   0 255 127   0 255 127   0   0 127 255   0 127 255   0 127 255   0 127 255   0 127 255   0 127 255 255 127   0 255 127   0 255 127   0 255 127   0 255 127   0 255 127   0   0 127 255   0 127 255   0 127 255   0 127 255   0 127 255   0 127 255 255 127   0 255 127   0 255 127   0 255 127   0 255 127   0 255 127   0   0 127 255   0 127 255   0 127 255   0 127 255   0 127 255   0 127 255 255 127   0 255 127   0 255 127   0 255 127   0 255 127   0   0 255   0   0 127 255   0 127 255   0 127 255   0 127 255   0 127 255   0 127 255 255 127   0 255 127   0 255 127   0 255 127   0 255 127   0 255 127   0   0 127 255   0 127 255   0 127 255   0 127 255   0 127 255   0 127 255
 255 127   0 255 127   0 255 127   0 255 127   0 255 127   0 255 127   0   0 127 255   0 127 255   0 127 255   0 127 255   0 127 255   0 127 255 255 127   0 255 127   0 255 127   0 255 127   0 255 127   0 255 127   0   0 127 255   0 127 255   0 127 255   0 127 255   0 127 255   0 127 255 255 127   0 255 127   0 255 127   0 255 127   0 255 127   0 255 127   0   0 127 255   0 127 255   0 127 255   0 127 255   0 127 255   0 127 255 255 127   0 255 127   0 255 127   0 255 127   0 255 127   0 255 127   0   0 255   0   0 127 255   0 127 255   0 127 255   0 127 255   0 127 255 255 127   0 255 127   0 255 127   0 255 127   0 255 127   0 255 127   0   0 127 255   0 127 255   0 127 255   0 127 255   0 127 255   0 127 255
 255 127   0 255 127   0 255 127   0 255 127   0 255 127   0 255 127   0   0 127 255   0 127 255   0 127 255   0 127 255   0 127 255   0 127 255 255 127   0 255 127   0 255 127   0 255 127   0 255 127   0 255 127   0   0 127 255   0 127 255   0 127 255   0 127 255   0 127 255   0 127 255 255 127   0 255 127   0 255 127   0 255 127   0 255 127   0 255 127   0   0 127 255   0 127 255   0 127 255   0 127 255   0 127 255   0 127 255 255 127   0 255 127   0 255 127   0 255 127   0 255 127   0 255 127   0   0 127 255   0 255   0   0 127 255   0 127 255   0 127 255   0 127 255 255 127   0 255 127   0 255 127   0 255 127   0 255 127   0 255 127   0   0 127 255   0 127 255   0 127 255   0 127 255   0 127 255   0 127 255
 255 127   0 255 127   0 255 127   0 255 127   0 255 127   0 255 127   0   0 127 255   0 127 255   0 127 255   0 127 255   0 127 255   0 127 255 255 127   0 255 127   0 255 127   0 255 127   0 255 127   0 255 127   0   0 127 255   0 127 255   0 127 255   0 127 255   0 127 255   0 127 255 255 127   0 255 127   0 255 127   0 255 127   0 255 127   0 255 127   0   0 127 255   0 127 255   0 127 255   0 127 255   0 127 255   0 127 255 255 127   0 255 127   0 255 127   0 255 127   0 255 127   0 255 127   0   0 127 255   0 127 255   0 127 255   0 127 255   0 127 255   0 127 255 255 127   0 255 127   0 255 127   0 255 127   0 255 127   0 255 127   0   0 127 255   0 127 255   0 127 255   0 127 255   0 127 255   0 127 255
 255 127   0 255 127   0 255 127   0 255 127   0 255 127   0 255 127   0   0 127 255   0 127 255   0 127 255   0 127 255   0 127 255   0 127 255 255 127   0 255 127   0 255 127   0 255 127   0 255 127   0 255 127   0   0 127 255   0 127 255   0 127 255   0 127 255   0 127 255   0 127 255 255 127   0 255 127   0 255 127   0 255 127   0 255 127   0 255 127   0   0 127 255   0 127 255   0 127 255   0 127 255   0 127 255   0 127 255 255 127   0 255 127   0 255 127   0 255 127   0 255 127   0 255 127   0   0 127 255   0 127 255   0 127 255   0 127 255   0 127 255   0 127 255 255 127   0 255 127   0 255 127   0 255 127   0 255 127   0 255 127   0   0 127 255   0 127 255   0 127 255   0 127 255   0 127 255   0 127 255
 255 127   0 255 127   0 255 127   0 255 127   0 255 127   0 255 127   0   0 127 255   0 127 255   0 127 255   0 127 255   0 127 255   0 127 255 255 127   0 255 127   0 255 127   0 255 127   0 255 127   0 255 127   0   0 127 255   0 127 255   0 127 255   0 127 255   0 127 255   0 127 255 255 127   0 255 127   0 255 127   0 255 127   0 255 127   0 255 127   0   0 127 255   0 127 255   0 127 255   0 127 255   0 127 255   0 127 255 255 127   0 255 127   0 255 127   0 255 127   0 255 127   0 255 127   0   0 127 255   0 127 255   0 127 255   0 127 255   0 127 255   0 127 255 255 127   0 255 127   0 255 127   0 255 127   0 255 127   0 255 127   0   0 127 255   0 127 255   0 127 255   0 127 255   0 127 255   0 127 255
 255 127   0 255 127   0 255 127   0 255 127   0 255 127   0 255 127   0   0 127 255   0 127 255   0 127 255   0 127 255   0 127 255   0 127 255 255 127   0 255 127   0 255 127   0 255 127   0 255 127   0 255 127   0   0 127 255   0 127 255   0 127 255   0 127 255   0 127 255   0 127 255 255 127   0 255 127   0 255 127   0 255 127   0 255 127   0 255 127   0   0 127 255   0 127 255   0 127 255   0 127 255   0 127 255   0 127 255 255 127   0 255 127   0 255 127   0 255 127   0 255 127   0 255 127   0   0 127 255   0 127 255   0 127 255   0 127 255   0 127 255   0 127 255 255 127   0 255 127   0 255 127   0 255 127   0 255 127   0 255 127   0   0 127 255   0 127 255   0 127 255   0 127 255   0 127 255   0 127 255
 255 127   0 255 127   0 255 127   0 255 127   0 255 127   0 255 127   0   0 127 255   0 127 255   0 127 255   0 127 255   0 127 255   0 127 255 255 127   0 255 127   0 255 127   0 255 127   0 255 127   0 255 127   0   0 127 255   0 127 255   0 127 255   0 127 255   0 127 255   0 127 255 255 127   0 255 127   0 255 127   0 255 127   0 255 127   0 255 127   0   0 127 255   0 127 255   0 127 255   0 127 255   0 127 255   0 127 255 255 127   0 255 127   0 255 127   0 255 127   0 255 127   0 255 127   0   0 127 255   0 127 255   0 127 255   0 127 255   0 127 255   0 127 255 255 127   0 255 127   0 255 127   0 255 127   0 255 127   0 255 127   0   0 127 255   0 127 255   0 127 255   0 127 255   0 127 255   0 127 255
 255 127   0 255 127   0 255 127   0 255 127   0 255 127   0 255 127   0   0 127 255   0 127 255   0 127 255   0 127 255   0 127 255   0 127 255 255 127   0 255 127   0 255 127   0 255 127   0 255 127   0 255 127   0   0 127 255   0 127 255   0 127 255   0 127 255   0 127 255   0 127 255 255 127   0 255 127   0 255 127   0 255 127   0 255 127   0 255 127   0   0 127 255   0 127 255   0 127 255   0 127 255   0 127 255   0 127 255 255 127   0 255 127   0 255 127   0 255 127   0 255 127   0 255 127   0   0 127 255   0 127 255   0 127 255   0 127 255   0 127 255   0 127 255 255 127   0 255 127   0 255 127   0 255 127   0 255 127   0 255 127   0   0 127 255   0 127 255   0 127 255   0 127 255   0 127 255   0 127 255
 255 127   0 255 127   0 255 127   0 255 127   0 255 127   0 255 127   0   0 127 255   0 127 255   0 127 255   0 127 255   0 127 255   0 127 255 255 127   0 255 127   0 255 127   0 255 127   0 255 127   0 255 127   0   0 127 255   0 127 255   0 127 255   0 127 255   0 127 255   0 127 255 255 127   0 255 127   0 255 127   0 255 127   0 255 127   0 255 127   0   0 127 255   0 127 255   0 127 255   0 127 255   0 127 255   0 127 255 255 127   0 255 127   0 255 127   0 255 127   0 255 127   0 255 127   0   0 127 255   0 127 255   0 127 255   0 127 255   0 127 255   0 127 255 255 127   0 255 127   0 255 127   0 255 127   0 255 127   0 255 127   0   0 127 255   0 127 255   0 127 255   0 127 255   0 127 255   0 127 255
 255 127   0 255 127   0 255 127   0 255 127   0 255 127   0 255 127   0   0 127 255   0 127 255   0 127 255   0 127 255   0 127 255   0 127 255 255 127   0 255 127   0 255 127   0 255 127   0 255 127   0 255 127   0   0 127 255   0 127 255   0 127 255   0 127 255   0 127 255   0 127 255 255 127   0 255 127   0 255 127   0 255 127   0 255 127   0 255 127   0   0 127 255   0 127 255   0 127 255   0 127 255   0 127 255   0 127 255 255 127   0 255 127   0 255 127   0 255 127   0 255 127   0 255 127   0   0 127 255   0 127 255   0 127 255   0 127 255   0 127 255   0 127 255 255 127   0 255 127   0 255 127   0 255 127   0 255 127   0 255 127   0   0 127 255   0 127 255   0 127 255   0 127 255   0 127 255   0 127 255
